<mxfile host="app.diagrams.net" agent="Mozilla/5.0 (Windows NT 10.0; Win64; x64) AppleWebKit/537.36 (KHTML, like Gecko) Chrome/121.0.0.0 Safari/537.36" version="24.8.0">
  <diagram name="第 1 页" id="Bj05R8QRVJabiGc4-4df">
    <mxGraphModel dx="1520" dy="886" grid="1" gridSize="10" guides="1" tooltips="1" connect="1" arrows="1" fold="1" page="1" pageScale="1" pageWidth="827" pageHeight="1169" math="0" shadow="0">
      <root>
        <mxCell id="0" />
        <mxCell id="1" parent="0" />
        <mxCell id="DaoDRAan5N-xbQoOhHpL-1" value="【simple_trajectory_follower.launch】&lt;div&gt;&lt;br&gt;&lt;div&gt;input: /localization/kinematic_state&lt;/div&gt;&lt;div&gt;input: /planning/scenario_planning/trajectory&lt;/div&gt;&lt;div&gt;&lt;br&gt;&lt;/div&gt;&lt;div&gt;output: /vehicle/command/manual_control_cmd&lt;/div&gt;&lt;div&gt;&lt;br&gt;&lt;/div&gt;&lt;/div&gt;" style="rounded=0;whiteSpace=wrap;html=1;" parent="1" vertex="1">
          <mxGeometry x="300" y="120" width="400" height="140" as="geometry" />
        </mxCell>
        <mxCell id="DaoDRAan5N-xbQoOhHpL-2" value="【planning.launch】&lt;div&gt;&amp;lt;!-- planning validator --&amp;gt;&lt;/div&gt;&lt;div&gt;&lt;br&gt;&lt;/div&gt;&lt;div&gt;input: /planning/scenario_planning/velocity_smoother&lt;span style=&quot;background-color: initial;&quot;&gt;/trajectory&lt;/span&gt;&lt;/div&gt;&lt;div&gt;&lt;br&gt;&lt;/div&gt;&lt;div&gt;output: /planning/scenario_planning/trajectory&lt;/div&gt;" style="rounded=0;whiteSpace=wrap;html=1;" parent="1" vertex="1">
          <mxGeometry x="300" y="290" width="399" height="160" as="geometry" />
        </mxCell>
        <mxCell id="DaoDRAan5N-xbQoOhHpL-3" value="【scenario_planning.launch】&lt;div&gt;&lt;span style=&quot;font-size: 12px;&quot;&gt;&amp;lt;!-- motion velocity smoother --&amp;gt;&lt;/span&gt;&lt;br&gt;&lt;/div&gt;&lt;div&gt;&lt;span style=&quot;font-size: 12px;&quot;&gt;&lt;br&gt;&lt;/span&gt;&lt;/div&gt;&lt;div&gt;&lt;span style=&quot;font-size: 12px;&quot;&gt;input: /planning/scenario_planning/scenario_selector/trajectory&lt;/span&gt;&lt;/div&gt;&lt;div&gt;&lt;span style=&quot;font-size: 12px;&quot;&gt;&lt;br&gt;&lt;/span&gt;&lt;/div&gt;&lt;div&gt;&lt;span style=&quot;font-size: 12px;&quot;&gt;output: /planning/scenario_planning/velocity_smoother/trajectory&lt;/span&gt;&lt;/div&gt;" style="rounded=0;whiteSpace=wrap;html=1;" parent="1" vertex="1">
          <mxGeometry x="300" y="480" width="399" height="160" as="geometry" />
        </mxCell>
        <mxCell id="DaoDRAan5N-xbQoOhHpL-4" value="【scenario_planning.launch】&lt;div&gt;&lt;span style=&quot;font-size: 12px;&quot;&gt;&amp;lt;!-- scenario selector --&amp;gt;&lt;/span&gt;&lt;br&gt;&lt;/div&gt;&lt;div&gt;&lt;span style=&quot;font-size: 12px;&quot;&gt;&lt;br&gt;&lt;/span&gt;&lt;/div&gt;&lt;div&gt;&lt;span style=&quot;font-size: 12px;&quot;&gt;input:&amp;nbsp;&lt;/span&gt;&lt;span style=&quot;background-color: initial; font-size: 12px;&quot;&gt;/planning/scenario_planning/lane_driving/trajectory&lt;/span&gt;&lt;/div&gt;&lt;div&gt;&lt;span style=&quot;background-color: initial; font-size: 12px;&quot;&gt;input:&amp;nbsp;&lt;/span&gt;&lt;span style=&quot;background-color: initial; font-size: 12px;&quot;&gt;/planning/scenario_planning/parking/trajectory&lt;/span&gt;&lt;/div&gt;&lt;div&gt;&lt;span style=&quot;background-color: initial; font-size: 12px;&quot;&gt;input:&amp;nbsp;&lt;/span&gt;&lt;span style=&quot;background-color: initial; font-size: 12px;&quot;&gt;/map/vector_map&lt;/span&gt;&lt;/div&gt;&lt;div&gt;&lt;span style=&quot;background-color: initial; font-size: 12px;&quot;&gt;input:&amp;nbsp;&lt;/span&gt;&lt;span style=&quot;background-color: initial; font-size: 12px;&quot;&gt;/planning/mission_planning/route&lt;/span&gt;&lt;/div&gt;&lt;div&gt;&lt;span style=&quot;background-color: initial; font-size: 12px;&quot;&gt;input:&amp;nbsp;&lt;/span&gt;&lt;span style=&quot;background-color: initial; font-size: 12px;&quot;&gt;/localization/kinematic_state&lt;/span&gt;&lt;/div&gt;&lt;div&gt;&lt;span style=&quot;background-color: initial; font-size: 12px;&quot;&gt;&lt;br&gt;&lt;/span&gt;&lt;/div&gt;&lt;div&gt;&lt;span style=&quot;background-color: initial; font-size: 12px;&quot;&gt;output: &lt;/span&gt;&lt;span style=&quot;background-color: initial; font-size: 12px;&quot;&gt;/planning/scenario_planning/scenario&lt;/span&gt;&lt;/div&gt;&lt;div&gt;&lt;span style=&quot;background-color: initial; font-size: 12px;&quot;&gt;output:&amp;nbsp;&lt;/span&gt;&lt;span style=&quot;background-color: initial; font-size: 12px;&quot;&gt;/planning/scenario_planning/scenario_selector/trajectory&lt;/span&gt;&lt;/div&gt;" style="rounded=0;whiteSpace=wrap;html=1;" parent="1" vertex="1">
          <mxGeometry x="300" y="670" width="399" height="240" as="geometry" />
        </mxCell>
        <mxCell id="DaoDRAan5N-xbQoOhHpL-5" value="【mission_planner.launch】&lt;div&gt;&lt;br&gt;&lt;/div&gt;&lt;div&gt;input: /planning/scenario_planning/modified_goal&lt;/div&gt;&lt;div&gt;&lt;span style=&quot;background-color: rgb(255, 255, 255);&quot;&gt;input: /map/vector_map&lt;/span&gt;&lt;/div&gt;&lt;div&gt;input: /localization/kinematic_state&lt;/div&gt;&lt;div&gt;input:&amp;nbsp;/planning/scenario_planning/lane_driving/behavior_planning/&lt;br&gt;behavior_path_planner/output/is_reroute_available&lt;/div&gt;&lt;div&gt;&lt;br&gt;&lt;/div&gt;&lt;div&gt;&lt;span style=&quot;background-color: rgb(255, 255, 153);&quot;&gt;publish: /planning/mission_planning/route&lt;/span&gt;&lt;/div&gt;" style="rounded=0;whiteSpace=wrap;html=1;" parent="1" vertex="1">
          <mxGeometry x="310" y="1550" width="400" height="220" as="geometry" />
        </mxCell>
        <mxCell id="DaoDRAan5N-xbQoOhHpL-6" value="【freespace_planner.launch】&lt;div&gt;&lt;br&gt;&lt;div&gt;&lt;span style=&quot;background-color: rgb(255, 255, 153);&quot;&gt;input: input_route&lt;/span&gt;&lt;/div&gt;&lt;div&gt;input: input_occupancy_grid&lt;/div&gt;&lt;div&gt;input: input_scenario&lt;/div&gt;&lt;div&gt;input: /localization/kinematic_state&lt;/div&gt;&lt;div&gt;&lt;br&gt;&lt;/div&gt;&lt;div&gt;output: output_trajectory&lt;/div&gt;&lt;/div&gt;&lt;div&gt;&lt;span style=&quot;background-color: rgb(204, 229, 255);&quot;&gt;publish: /planning/scenario_planning/parking/trajectory&lt;/span&gt;&lt;/div&gt;" style="rounded=0;whiteSpace=wrap;html=1;" parent="1" vertex="1">
          <mxGeometry x="38" y="945" width="399" height="220" as="geometry" />
        </mxCell>
        <mxCell id="DaoDRAan5N-xbQoOhHpL-7" value="【motion_planning.launch】&lt;div&gt;&lt;br&gt;&lt;div&gt;input: obstacle_velocity_limiter/trajectory&lt;/div&gt;&lt;div&gt;(&lt;span style=&quot;background-color: rgb(255, 204, 204);&quot;&gt;/planning/scenario_planning/lane_driving/behavior_planning/path&lt;/span&gt;)&lt;/div&gt;&lt;div&gt;input: /localization/kinematic_state&lt;/div&gt;&lt;div&gt;input: /localization/acceleration&lt;/div&gt;&lt;div&gt;input: /perception/object_recognition/objects&lt;/div&gt;&lt;div&gt;&lt;br&gt;&lt;/div&gt;&lt;div&gt;&lt;span style=&quot;background-color: rgb(204, 229, 255);&quot;&gt;output:&amp;nbsp; /planning/scenario_planning/lane_driving/trajectory&lt;/span&gt;&lt;/div&gt;&lt;/div&gt;&lt;div&gt;output:&amp;nbsp;/planning/scenario_planning/status/stop_reasons&lt;/div&gt;&lt;div&gt;output:&amp;nbsp;/planning/scenario_planning/max_velocity_candidates&lt;/div&gt;&lt;div&gt;output:&amp;nbsp;/planning/scenario_planning/clear_velocity_limit&lt;/div&gt;" style="rounded=0;whiteSpace=wrap;html=1;" parent="1" vertex="1">
          <mxGeometry x="558" y="945" width="399" height="220" as="geometry" />
        </mxCell>
        <mxCell id="wsuHxp2bKw_w7uOm45Yj-1" value="【behavior_planning.launch】&lt;div&gt;&lt;span style=&quot;background-color: rgb(255, 255, 153);&quot;&gt;input:&amp;nbsp;/planning/mission_planning/route&lt;/span&gt;&lt;/div&gt;&lt;div&gt;input:&amp;nbsp;/map/vector_map&lt;/div&gt;&lt;div&gt;input:&amp;nbsp;/perception/object_recognition/objects&lt;/div&gt;&lt;div&gt;input:&amp;nbsp;/perception/occupancy_grid_map/map&lt;/div&gt;&lt;div&gt;input:&amp;nbsp;/planning/scenario_planning/parking&lt;/div&gt;&lt;div&gt;/costmap_generator/occupancy_grid&lt;/div&gt;&lt;div&gt;input:&amp;nbsp;/perception/traffic_light_recognition/traffic_signals&lt;/div&gt;&lt;div&gt;input:/localization/kinematic_state&lt;/div&gt;&lt;div&gt;input:/localization/acceleration&lt;/div&gt;&lt;div&gt;input:&amp;nbsp;/planning/scenario_planning/scenario&lt;/div&gt;&lt;div&gt;&lt;br&gt;&lt;/div&gt;&lt;div&gt;&lt;span style=&quot;background-color: rgb(255, 204, 204);&quot;&gt;output: path&lt;/span&gt;&lt;/div&gt;&lt;div&gt;output:&amp;nbsp;/planning/turn_indicators_cmd&lt;/div&gt;&lt;div&gt;output:&amp;nbsp;/planning/hazard_lights_cmd&lt;/div&gt;&lt;div&gt;output:&amp;nbsp;/planning/scenario_planning/modified_goal&lt;/div&gt;&lt;div&gt;output:&amp;nbsp;/planning/scenario_planning/status/stop_reasons&lt;/div&gt;" style="rounded=0;whiteSpace=wrap;html=1;" vertex="1" parent="1">
          <mxGeometry x="557" y="1200" width="402" height="310" as="geometry" />
        </mxCell>
        <mxCell id="wsuHxp2bKw_w7uOm45Yj-2" value="" style="endArrow=classic;html=1;rounded=0;entryX=0.25;entryY=1;entryDx=0;entryDy=0;exitX=0.75;exitY=0;exitDx=0;exitDy=0;" edge="1" parent="1" source="DaoDRAan5N-xbQoOhHpL-5" target="wsuHxp2bKw_w7uOm45Yj-1">
          <mxGeometry width="50" height="50" relative="1" as="geometry">
            <mxPoint x="600" y="1550" as="sourcePoint" />
            <mxPoint x="650" y="1500" as="targetPoint" />
          </mxGeometry>
        </mxCell>
        <mxCell id="wsuHxp2bKw_w7uOm45Yj-3" value="" style="endArrow=classic;html=1;rounded=0;exitX=0.5;exitY=0;exitDx=0;exitDy=0;" edge="1" parent="1" source="wsuHxp2bKw_w7uOm45Yj-1" target="DaoDRAan5N-xbQoOhHpL-7">
          <mxGeometry width="50" height="50" relative="1" as="geometry">
            <mxPoint x="360" y="1330" as="sourcePoint" />
            <mxPoint x="410" y="1280" as="targetPoint" />
          </mxGeometry>
        </mxCell>
        <mxCell id="wsuHxp2bKw_w7uOm45Yj-4" value="" style="endArrow=classic;html=1;rounded=0;exitX=0.75;exitY=0;exitDx=0;exitDy=0;entryX=0.25;entryY=1;entryDx=0;entryDy=0;" edge="1" parent="1" source="DaoDRAan5N-xbQoOhHpL-6" target="DaoDRAan5N-xbQoOhHpL-4">
          <mxGeometry width="50" height="50" relative="1" as="geometry">
            <mxPoint x="460" y="1090" as="sourcePoint" />
            <mxPoint x="510" y="1040" as="targetPoint" />
          </mxGeometry>
        </mxCell>
        <mxCell id="wsuHxp2bKw_w7uOm45Yj-5" value="" style="endArrow=classic;html=1;rounded=0;exitX=0.25;exitY=0;exitDx=0;exitDy=0;entryX=0.75;entryY=1;entryDx=0;entryDy=0;" edge="1" parent="1" source="DaoDRAan5N-xbQoOhHpL-7" target="DaoDRAan5N-xbQoOhHpL-4">
          <mxGeometry width="50" height="50" relative="1" as="geometry">
            <mxPoint x="500" y="1000" as="sourcePoint" />
            <mxPoint x="550" y="950" as="targetPoint" />
          </mxGeometry>
        </mxCell>
        <mxCell id="wsuHxp2bKw_w7uOm45Yj-6" value="" style="endArrow=classic;html=1;rounded=0;exitX=0.5;exitY=0;exitDx=0;exitDy=0;" edge="1" parent="1" source="DaoDRAan5N-xbQoOhHpL-4" target="DaoDRAan5N-xbQoOhHpL-3">
          <mxGeometry width="50" height="50" relative="1" as="geometry">
            <mxPoint x="220" y="670" as="sourcePoint" />
            <mxPoint x="270" y="620" as="targetPoint" />
          </mxGeometry>
        </mxCell>
        <mxCell id="wsuHxp2bKw_w7uOm45Yj-7" value="" style="endArrow=classic;html=1;rounded=0;exitX=0.5;exitY=0;exitDx=0;exitDy=0;entryX=0.5;entryY=1;entryDx=0;entryDy=0;" edge="1" parent="1" source="DaoDRAan5N-xbQoOhHpL-3" target="DaoDRAan5N-xbQoOhHpL-2">
          <mxGeometry width="50" height="50" relative="1" as="geometry">
            <mxPoint x="140" y="470" as="sourcePoint" />
            <mxPoint x="190" y="420" as="targetPoint" />
          </mxGeometry>
        </mxCell>
        <mxCell id="wsuHxp2bKw_w7uOm45Yj-8" value="" style="endArrow=classic;html=1;rounded=0;exitX=0.5;exitY=0;exitDx=0;exitDy=0;" edge="1" parent="1" source="DaoDRAan5N-xbQoOhHpL-2" target="DaoDRAan5N-xbQoOhHpL-1">
          <mxGeometry width="50" height="50" relative="1" as="geometry">
            <mxPoint x="130" y="230" as="sourcePoint" />
            <mxPoint x="180" y="180" as="targetPoint" />
          </mxGeometry>
        </mxCell>
        <mxCell id="wsuHxp2bKw_w7uOm45Yj-9" value="" style="endArrow=classic;html=1;rounded=0;exitX=0.25;exitY=0;exitDx=0;exitDy=0;entryX=0.5;entryY=1;entryDx=0;entryDy=0;" edge="1" parent="1" source="DaoDRAan5N-xbQoOhHpL-5" target="DaoDRAan5N-xbQoOhHpL-6">
          <mxGeometry width="50" height="50" relative="1" as="geometry">
            <mxPoint x="300" y="1460" as="sourcePoint" />
            <mxPoint x="350" y="1410" as="targetPoint" />
          </mxGeometry>
        </mxCell>
      </root>
    </mxGraphModel>
  </diagram>
</mxfile>
